<svg width="387" height="89" viewBox="0 0 387 89" fill="none" xmlns="http://www.w3.org/2000/svg">
<g filter="url(#filter0_d_0_1)">
<path d="M0.000178099 76.7273V4.00002H25.4263C30.4926 4.00002 34.6711 4.87597 37.9618 6.62786C41.2525 8.35608 43.7028 10.688 45.3127 13.6236C46.9225 16.5355 47.7275 19.7671 47.7275 23.3182C47.7275 26.4432 47.1711 29.0237 46.0584 31.0597C44.9694 33.0957 43.5253 34.7055 41.726 35.8892C39.9505 37.0729 38.021 37.9489 35.9377 38.5171V39.2273C38.1631 39.3693 40.4003 40.1506 42.6493 41.571C44.8984 42.9915 46.7805 45.0275 48.2956 47.679C49.8108 50.3305 50.5684 53.5739 50.5684 57.4091C50.5684 61.0549 49.7398 64.3338 48.0826 67.2458C46.4254 70.1577 43.8094 72.4659 40.2346 74.1705C36.6597 75.875 32.0078 76.7273 26.2786 76.7273H0.000178099ZM8.807 68.9148H26.2786C32.0314 68.9148 36.1152 67.8021 38.53 65.5767C40.9685 63.3277 42.1877 60.6051 42.1877 57.4091C42.1877 54.947 41.5603 52.6743 40.3056 50.5909C39.0508 48.4839 37.2634 46.8031 34.9434 45.5483C32.6233 44.2699 29.8771 43.6307 26.7047 43.6307H8.807V68.9148ZM8.807 35.9602H25.1422C27.7937 35.9602 30.1848 35.4394 32.3155 34.3977C34.4699 33.3561 36.1744 31.8883 37.4292 29.9943C38.7076 28.1004 39.3468 25.875 39.3468 23.3182C39.3468 20.1222 38.2341 17.4115 36.0087 15.1861C33.7833 12.937 30.2559 11.8125 25.4263 11.8125H8.807V35.9602ZM65.0392 76.7273V4.00002H108.931V11.8125H73.8461V36.3864H106.659V44.1989H73.8461V68.9148H109.499V76.7273H65.0392ZM122.39 76.7273V70.3352L161.595 11.8125H121.964V4.00002H172.106V10.3921L132.901 68.9148H172.532V76.7273H122.39ZM187.305 76.7273V4.00002H211.879C217.561 4.00002 222.224 4.97066 225.87 6.91195C229.516 8.82956 232.215 11.4692 233.967 14.831C235.719 18.1927 236.595 22.0161 236.595 26.3012C236.595 30.5862 235.719 34.3859 233.967 37.7003C232.215 41.0147 229.528 43.6189 225.906 45.5128C222.284 47.3831 217.655 48.3182 212.021 48.3182H192.134V40.3637H211.737C215.619 40.3637 218.744 39.7955 221.112 38.6591C223.503 37.5227 225.231 35.9129 226.296 33.8296C227.385 31.7226 227.93 29.2131 227.93 26.3012C227.93 23.3892 227.385 20.8442 226.296 18.6662C225.207 16.4882 223.467 14.8073 221.076 13.6236C218.685 12.4162 215.525 11.8125 211.595 11.8125H196.112V76.7273H187.305ZM221.538 44.0568L239.436 76.7273H229.208L211.595 44.0568H221.538ZM254.253 76.7273H245.02L271.724 4.00002H280.815L307.52 76.7273H298.287L276.554 15.5057H275.986L254.253 76.7273ZM257.662 48.3182H294.878V56.1307H257.662V48.3182ZM318.848 76.7273V4.00002H344.274C349.34 4.00002 353.519 4.87597 356.809 6.62786C360.1 8.35608 362.55 10.688 364.16 13.6236C365.77 16.5355 366.575 19.7671 366.575 23.3182C366.575 26.4432 366.019 29.0237 364.906 31.0597C363.817 33.0957 362.373 34.7055 360.574 35.8892C358.798 37.0729 356.869 37.9489 354.785 38.5171V39.2273C357.011 39.3693 359.248 40.1506 361.497 41.571C363.746 42.9915 365.628 45.0275 367.143 47.679C368.658 50.3305 369.416 53.5739 369.416 57.4091C369.416 61.0549 368.587 64.3338 366.93 67.2458C365.273 70.1577 362.657 72.4659 359.082 74.1705C355.507 75.875 350.855 76.7273 345.126 76.7273H318.848ZM327.655 68.9148H345.126C350.879 68.9148 354.963 67.8021 357.378 65.5767C359.816 63.3277 361.035 60.6051 361.035 57.4091C361.035 54.947 360.408 52.6743 359.153 50.5909C357.898 48.4839 356.111 46.8031 353.791 45.5483C351.471 44.2699 348.725 43.6307 345.552 43.6307H327.655V68.9148ZM327.655 35.9602H343.99C346.641 35.9602 349.032 35.4394 351.163 34.3977C353.318 33.3561 355.022 31.8883 356.277 29.9943C357.555 28.1004 358.194 25.875 358.194 23.3182C358.194 20.1222 357.082 17.4115 354.856 15.1861C352.631 12.937 349.104 11.8125 344.274 11.8125H327.655V35.9602Z" fill="#5B4B8A"/>
</g>
<defs>
<filter id="filter0_d_0_1" x="0" y="0" width="386.416" height="88.7273" filterUnits="userSpaceOnUse" color-interpolation-filters="sRGB">
<feFlood flood-opacity="0" result="BackgroundImageFix"/>
<feColorMatrix in="SourceAlpha" type="matrix" values="0 0 0 0 0 0 0 0 0 0 0 0 0 0 0 0 0 0 127 0" result="hardAlpha"/>
<feOffset dx="9" dy="4"/>
<feGaussianBlur stdDeviation="4"/>
<feComposite in2="hardAlpha" operator="out"/>
<feColorMatrix type="matrix" values="0 0 0 0 0 0 0 0 0 0 0 0 0 0 0 0 0 0 0.6 0"/>
<feBlend mode="normal" in2="BackgroundImageFix" result="effect1_dropShadow_0_1"/>
<feBlend mode="normal" in="SourceGraphic" in2="effect1_dropShadow_0_1" result="shape"/>
</filter>
</defs>
</svg>
